%TF.GenerationSoftware,KiCad,Pcbnew,10.0.4*%
%TF.CreationDate,2026-07-13T16:49:05+05:30*%
%TF.ProjectId,Assignment,41737369-676e-46d6-956e-742e6b696361,rev?*%
%TF.SameCoordinates,Original*%
%TF.FileFunction,Copper,L1,Top*%
%TF.FilePolarity,Positive*%
%FSLAX46Y46*%
G04 Gerber Fmt 4.6, Leading zero omitted, Abs format (unit mm)*
G04 Created by KiCad (PCBNEW 10.0.4) date 2026-07-13 16:49:05*
%MOMM*%
%LPD*%
G01*
G04 APERTURE LIST*
%TA.AperFunction,ComponentPad*%
%ADD10R,1.500000X1.500000*%
%TD*%
%TA.AperFunction,ComponentPad*%
%ADD11C,1.500000*%
%TD*%
%TA.AperFunction,ComponentPad*%
%ADD12C,2.300000*%
%TD*%
%TA.AperFunction,ViaPad*%
%ADD13C,0.600000*%
%TD*%
%TA.AperFunction,Conductor*%
%ADD14C,0.105000*%
%TD*%
%TA.AperFunction,Conductor*%
%ADD15C,0.200000*%
%TD*%
G04 APERTURE END LIST*
D10*
%TO.P,J2RJ45_OUT1,1*%
%TO.N,ETH_A_P*%
X153675000Y-107840000D03*
D11*
%TO.P,J2RJ45_OUT1,2*%
%TO.N,ETH_A_N*%
X151895000Y-108856000D03*
%TO.P,J2RJ45_OUT1,3*%
%TO.N,ETH_B_P*%
X153675000Y-109872000D03*
%TO.P,J2RJ45_OUT1,4*%
%TO.N,ETH_C_P*%
X151895000Y-110888000D03*
%TO.P,J2RJ45_OUT1,5*%
%TO.N,ETH_C_N*%
X153675000Y-111904000D03*
%TO.P,J2RJ45_OUT1,6*%
%TO.N,ETH_B_N*%
X151895000Y-112920000D03*
%TO.P,J2RJ45_OUT1,7*%
%TO.N,ETH_D_P*%
X153675000Y-113936000D03*
%TO.P,J2RJ45_OUT1,8*%
%TO.N,ETH_D_N*%
X151895000Y-114952000D03*
D12*
%TO.P,J2RJ45_OUT1,SH*%
%TO.N,GND*%
X152785000Y-103270000D03*
X152785000Y-119530000D03*
%TD*%
D10*
%TO.P,J1RJ45_IN1,1*%
%TO.N,ETH_A_P*%
X114260000Y-114960000D03*
D11*
%TO.P,J1RJ45_IN1,2*%
%TO.N,ETH_A_N*%
X116040000Y-113944000D03*
%TO.P,J1RJ45_IN1,3*%
%TO.N,ETH_B_P*%
X114260000Y-112928000D03*
%TO.P,J1RJ45_IN1,4*%
%TO.N,ETH_C_P*%
X116040000Y-111912000D03*
%TO.P,J1RJ45_IN1,5*%
%TO.N,ETH_C_N*%
X114260000Y-110896000D03*
%TO.P,J1RJ45_IN1,6*%
%TO.N,ETH_B_N*%
X116040000Y-109880000D03*
%TO.P,J1RJ45_IN1,7*%
%TO.N,ETH_D_P*%
X114260000Y-108864000D03*
%TO.P,J1RJ45_IN1,8*%
%TO.N,ETH_D_N*%
X116040000Y-107848000D03*
D12*
%TO.P,J1RJ45_IN1,SH*%
%TO.N,GND*%
X115150000Y-119530000D03*
X115150000Y-103270000D03*
%TD*%
D13*
%TO.N,GND*%
X160610500Y-117470500D03*
X151610500Y-117470500D03*
X148610500Y-117470500D03*
X145610500Y-117470500D03*
X142610500Y-117470500D03*
X139610500Y-117470500D03*
X136610500Y-117470500D03*
X133610500Y-117470500D03*
X130610500Y-117470500D03*
X127610500Y-117470500D03*
X124610500Y-117470500D03*
X121610500Y-117470500D03*
X118610500Y-117470500D03*
X115610500Y-117470500D03*
X160610500Y-114470500D03*
X157610500Y-114470500D03*
X109610500Y-114470500D03*
X160610500Y-111470500D03*
X157610500Y-111470500D03*
X109610500Y-111470500D03*
X160610500Y-108470500D03*
X157610500Y-108470500D03*
X109610500Y-108470500D03*
X160610500Y-105470500D03*
X151610500Y-105470500D03*
X148610500Y-105470500D03*
X145610500Y-105470500D03*
X142610500Y-105470500D03*
X139610500Y-105470500D03*
X136610500Y-105470500D03*
X133610500Y-105470500D03*
X130610500Y-105470500D03*
X127610500Y-105470500D03*
X124610500Y-105470500D03*
X121610500Y-105470500D03*
X118610500Y-105470500D03*
X115610500Y-105470500D03*
%TD*%
%TO.N,ETH_D_P*%
D14*
X134710052Y-113936000D02*
G75*
G03*
X134950100Y-113696000I48J240000D01*
G01*
X117989000Y-113936000D02*
X133510052Y-113936000D01*
X134590052Y-113936000D02*
X134710052Y-113936000D01*
X115375000Y-116550000D02*
X117989000Y-113936000D01*
X133750052Y-113696000D02*
X133750052Y-113447437D01*
X135310052Y-113207413D02*
G75*
G02*
X135550087Y-113447413I48J-239987D01*
G01*
X113307500Y-115912500D02*
X113945000Y-116550000D01*
X113945000Y-116550000D02*
X115375000Y-116550000D01*
X113307500Y-109816500D02*
X113307500Y-115912500D01*
X134950052Y-113447413D02*
G75*
G02*
X135190052Y-113207352I240048J13D01*
G01*
X134110052Y-113207437D02*
G75*
G02*
X134350063Y-113447437I48J-239963D01*
G01*
X134950052Y-113696000D02*
X134950052Y-113447413D01*
X133510052Y-113936000D02*
G75*
G03*
X133750100Y-113696000I48J240000D01*
G01*
X133990052Y-113207437D02*
X134110052Y-113207437D01*
X134350052Y-113696000D02*
G75*
G03*
X134590052Y-113936048I240048J0D01*
G01*
X134350052Y-113447437D02*
X134350052Y-113696000D01*
X114260000Y-108864000D02*
X113307500Y-109816500D01*
X135550052Y-113696000D02*
G75*
G03*
X135790052Y-113936048I240048J0D01*
G01*
X133750052Y-113447437D02*
G75*
G02*
X133990052Y-113207352I240048J37D01*
G01*
X135910052Y-113936000D02*
X136006512Y-113936000D01*
X135550052Y-113447413D02*
X135550052Y-113696000D01*
X135190052Y-113207413D02*
X135310052Y-113207413D01*
X135790052Y-113936000D02*
X135910052Y-113936000D01*
X136006512Y-113936000D02*
X153675000Y-113936000D01*
%TO.N,ETH_A_N*%
X135140845Y-107017500D02*
X135140845Y-107325853D01*
X135740845Y-107325853D02*
X135740845Y-107017500D01*
X115785501Y-113689501D02*
X115972962Y-113689501D01*
X133580845Y-106777500D02*
X133700845Y-106777500D01*
X116040000Y-113944000D02*
X115785501Y-113689501D01*
X115972962Y-113689501D02*
X122884963Y-106777500D01*
X134180845Y-107565878D02*
X134300845Y-107565878D01*
X135140845Y-107325853D02*
G75*
G03*
X135380845Y-107565855I239955J-47D01*
G01*
X136100845Y-106777500D02*
X136139302Y-106777500D01*
X133340845Y-107325878D02*
X133340845Y-107017500D01*
X151895000Y-108020313D02*
X151895000Y-108856000D01*
X132740845Y-107017500D02*
X132740845Y-107325878D01*
X134540845Y-107325878D02*
X134540845Y-107017500D01*
X135740845Y-107017500D02*
G75*
G02*
X135980845Y-106777545I239955J0D01*
G01*
X134780845Y-106777500D02*
X134900845Y-106777500D01*
X135980845Y-106777500D02*
X136100845Y-106777500D01*
X136139302Y-106777500D02*
X150652187Y-106777500D01*
X133940845Y-107017500D02*
X133940845Y-107325878D01*
X132980845Y-107565878D02*
X133100845Y-107565878D01*
X122884963Y-106777500D02*
X132500845Y-106777500D01*
X150652187Y-106777500D02*
X151895000Y-108020313D01*
X135380845Y-107565853D02*
X135500845Y-107565853D01*
X133940845Y-107325878D02*
G75*
G03*
X134180845Y-107565855I239955J-22D01*
G01*
X132500845Y-106777500D02*
G75*
G02*
X132740800Y-107017500I-45J-240000D01*
G01*
X134900845Y-106777500D02*
G75*
G02*
X135140800Y-107017500I-45J-240000D01*
G01*
X134540845Y-107017500D02*
G75*
G02*
X134780845Y-106777545I239955J0D01*
G01*
X134300845Y-107565878D02*
G75*
G03*
X134540778Y-107325878I-45J239978D01*
G01*
X133340845Y-107017500D02*
G75*
G02*
X133580845Y-106777545I239955J0D01*
G01*
X133700845Y-106777500D02*
G75*
G02*
X133940800Y-107017500I-45J-240000D01*
G01*
X135500845Y-107565853D02*
G75*
G03*
X135740753Y-107325853I-45J239953D01*
G01*
X132740845Y-107325878D02*
G75*
G03*
X132980845Y-107565855I239955J-22D01*
G01*
X133100845Y-107565878D02*
G75*
G03*
X133340778Y-107325878I-45J239978D01*
G01*
%TO.N,ETH_A_P*%
D15*
X153589000Y-107754000D02*
X153675000Y-107840000D01*
D14*
X116434539Y-112864500D02*
X122776539Y-106522500D01*
X114260000Y-114960000D02*
X115087500Y-114132500D01*
X115087500Y-113549461D02*
X115772461Y-112864500D01*
X152075313Y-107840000D02*
X153675000Y-107840000D01*
X115087500Y-114132500D02*
X115087500Y-113549461D01*
X115772461Y-112864500D02*
X116434539Y-112864500D01*
X150757813Y-106522500D02*
X152075313Y-107840000D01*
X122776539Y-106522500D02*
X150757813Y-106522500D01*
%TO.N,ETH_D_N*%
X151134000Y-114191000D02*
X151895000Y-114952000D01*
X115472583Y-116850000D02*
X118131583Y-114191000D01*
X113052501Y-116018125D02*
X113884376Y-116850000D01*
X113928961Y-107848000D02*
X113052501Y-108724460D01*
X116040000Y-107848000D02*
X116040000Y-107444625D01*
X113052501Y-108724460D02*
X113052501Y-116018125D01*
X113884376Y-116850000D02*
X115472583Y-116850000D01*
X116040000Y-107848000D02*
X113928961Y-107848000D01*
X118131583Y-114191000D02*
X151134000Y-114191000D01*
%TD*%
%TA.AperFunction,Conductor*%
%TO.N,GND*%
G36*
X161617539Y-102140185D02*
G01*
X161663294Y-102192989D01*
X161674500Y-102244500D01*
X161674500Y-120555500D01*
X161654815Y-120622539D01*
X161602011Y-120668294D01*
X161550500Y-120679500D01*
X106384500Y-120679500D01*
X106317461Y-120659815D01*
X106271706Y-120607011D01*
X106260500Y-120555500D01*
X106260500Y-117627065D01*
X109844500Y-117627065D01*
X109844500Y-117872934D01*
X109871227Y-118075939D01*
X109876591Y-118116677D01*
X109876592Y-118116679D01*
X109940222Y-118354152D01*
X109940225Y-118354162D01*
X110034303Y-118581285D01*
X110034306Y-118581292D01*
X110157233Y-118794208D01*
X110157235Y-118794211D01*
X110157236Y-118794212D01*
X110306897Y-118989254D01*
X110306903Y-118989261D01*
X110480738Y-119163096D01*
X110480744Y-119163101D01*
X110675792Y-119312767D01*
X110888708Y-119435694D01*
X111115847Y-119529778D01*
X111353323Y-119593409D01*
X111597073Y-119625500D01*
X111597080Y-119625500D01*
X111842920Y-119625500D01*
X111842927Y-119625500D01*
X112086677Y-119593409D01*
X112324153Y-119529778D01*
X112551292Y-119435694D01*
X112764208Y-119312767D01*
X112959256Y-119163101D01*
X113133101Y-118989256D01*
X113282767Y-118794208D01*
X113405694Y-118581292D01*
X113499778Y-118354153D01*
X113563409Y-118116677D01*
X113595500Y-117872927D01*
X113595500Y-117627073D01*
X113595499Y-117627065D01*
X154339500Y-117627065D01*
X154339500Y-117872934D01*
X154366227Y-118075939D01*
X154371591Y-118116677D01*
X154371592Y-118116679D01*
X154435222Y-118354152D01*
X154435225Y-118354162D01*
X154529303Y-118581285D01*
X154529306Y-118581292D01*
X154652233Y-118794208D01*
X154652235Y-118794211D01*
X154652236Y-118794212D01*
X154801897Y-118989254D01*
X154801903Y-118989261D01*
X154975738Y-119163096D01*
X154975744Y-119163101D01*
X155170792Y-119312767D01*
X155383708Y-119435694D01*
X155610847Y-119529778D01*
X155848323Y-119593409D01*
X156092073Y-119625500D01*
X156092080Y-119625500D01*
X156337920Y-119625500D01*
X156337927Y-119625500D01*
X156581677Y-119593409D01*
X156819153Y-119529778D01*
X157046292Y-119435694D01*
X157259208Y-119312767D01*
X157454256Y-119163101D01*
X157628101Y-118989256D01*
X157777767Y-118794208D01*
X157900694Y-118581292D01*
X157994778Y-118354153D01*
X158058409Y-118116677D01*
X158090500Y-117872927D01*
X158090500Y-117627073D01*
X158058409Y-117383323D01*
X157994778Y-117145847D01*
X157900694Y-116918708D01*
X157777767Y-116705792D01*
X157628101Y-116510744D01*
X157628096Y-116510738D01*
X157454261Y-116336903D01*
X157454254Y-116336897D01*
X157259212Y-116187236D01*
X157259211Y-116187235D01*
X157259208Y-116187233D01*
X157046292Y-116064306D01*
X157037968Y-116060858D01*
X156819162Y-115970225D01*
X156819155Y-115970223D01*
X156819153Y-115970222D01*
X156581677Y-115906591D01*
X156540939Y-115901227D01*
X156337934Y-115874500D01*
X156337927Y-115874500D01*
X156092073Y-115874500D01*
X156092065Y-115874500D01*
X155860059Y-115905045D01*
X155848323Y-115906591D01*
X155741429Y-115935233D01*
X155610847Y-115970222D01*
X155610837Y-115970225D01*
X155383714Y-116064303D01*
X155383705Y-116064307D01*
X155170787Y-116187236D01*
X154975745Y-116336897D01*
X154975738Y-116336903D01*
X154801903Y-116510738D01*
X154801897Y-116510745D01*
X154652236Y-116705787D01*
X154529307Y-116918705D01*
X154529303Y-116918714D01*
X154435225Y-117145837D01*
X154435222Y-117145847D01*
X154371592Y-117383320D01*
X154371590Y-117383331D01*
X154339500Y-117627065D01*
X113595499Y-117627065D01*
X113563409Y-117383323D01*
X113501454Y-117152102D01*
X113503117Y-117082254D01*
X113542280Y-117024392D01*
X113606508Y-116996888D01*
X113675410Y-117008475D01*
X113708910Y-117032330D01*
X113741063Y-117064483D01*
X113834051Y-117103000D01*
X113834052Y-117103000D01*
X115522907Y-117103000D01*
X115522908Y-117103000D01*
X115615896Y-117064483D01*
X118200060Y-114480319D01*
X118261383Y-114446834D01*
X118287741Y-114444000D01*
X150891028Y-114444000D01*
X150958067Y-114463685D01*
X151003822Y-114516489D01*
X151013766Y-114585647D01*
X151005591Y-114615446D01*
X150981212Y-114674302D01*
X150981026Y-114674752D01*
X150981025Y-114674756D01*
X150944500Y-114858379D01*
X150944500Y-115045620D01*
X150981025Y-115229243D01*
X150981027Y-115229251D01*
X151052676Y-115402228D01*
X151052681Y-115402237D01*
X151156697Y-115557907D01*
X151156700Y-115557911D01*
X151289088Y-115690299D01*
X151289092Y-115690302D01*
X151444762Y-115794318D01*
X151444768Y-115794321D01*
X151444769Y-115794322D01*
X151617749Y-115865973D01*
X151783120Y-115898867D01*
X151801379Y-115902499D01*
X151801383Y-115902500D01*
X151801384Y-115902500D01*
X151988617Y-115902500D01*
X151988618Y-115902499D01*
X152172251Y-115865973D01*
X152345231Y-115794322D01*
X152500908Y-115690302D01*
X152633302Y-115557908D01*
X152737322Y-115402231D01*
X152808973Y-115229251D01*
X152845500Y-115045616D01*
X152845500Y-114858384D01*
X152824021Y-114750401D01*
X152830248Y-114680811D01*
X152873111Y-114625634D01*
X152939000Y-114602389D01*
X153006997Y-114618457D01*
X153033319Y-114638530D01*
X153069088Y-114674299D01*
X153069092Y-114674302D01*
X153224762Y-114778318D01*
X153224771Y-114778323D01*
X153244085Y-114786323D01*
X153397749Y-114849973D01*
X153581379Y-114886499D01*
X153581383Y-114886500D01*
X153581384Y-114886500D01*
X153768617Y-114886500D01*
X153768618Y-114886499D01*
X153952251Y-114849973D01*
X154125231Y-114778322D01*
X154280908Y-114674302D01*
X154413302Y-114541908D01*
X154517322Y-114386231D01*
X154588973Y-114213251D01*
X154625500Y-114029616D01*
X154625500Y-113842384D01*
X154588973Y-113658749D01*
X154517322Y-113485769D01*
X154517321Y-113485768D01*
X154517318Y-113485762D01*
X154413302Y-113330092D01*
X154413299Y-113330088D01*
X154280911Y-113197700D01*
X154280907Y-113197697D01*
X154125237Y-113093681D01*
X154125228Y-113093676D01*
X154018215Y-113049350D01*
X153982509Y-113034560D01*
X153928107Y-112990720D01*
X153906042Y-112924426D01*
X153923321Y-112856727D01*
X153974458Y-112809116D01*
X153982504Y-112805441D01*
X154125231Y-112746322D01*
X154280908Y-112642302D01*
X154413302Y-112509908D01*
X154517322Y-112354231D01*
X154588973Y-112181251D01*
X154625500Y-111997616D01*
X154625500Y-111810384D01*
X154588973Y-111626749D01*
X154517322Y-111453769D01*
X154517321Y-111453768D01*
X154517318Y-111453762D01*
X154413302Y-111298092D01*
X154413299Y-111298088D01*
X154280911Y-111165700D01*
X154280907Y-111165697D01*
X154125237Y-111061681D01*
X154125228Y-111061676D01*
X153992947Y-111006884D01*
X153982509Y-111002560D01*
X153928107Y-110958720D01*
X153906042Y-110892426D01*
X153923321Y-110824727D01*
X153974458Y-110777116D01*
X153982504Y-110773441D01*
X154125231Y-110714322D01*
X154280908Y-110610302D01*
X154413302Y-110477908D01*
X154517322Y-110322231D01*
X154588973Y-110149251D01*
X154625500Y-109965616D01*
X154625500Y-109778384D01*
X154588973Y-109594749D01*
X154517322Y-109421769D01*
X154517321Y-109421768D01*
X154517318Y-109421762D01*
X154413302Y-109266092D01*
X154413299Y-109266088D01*
X154280911Y-109133700D01*
X154280907Y-109133697D01*
X154125237Y-109029681D01*
X154125227Y-109029676D01*
X154123742Y-109029061D01*
X154123083Y-109028530D01*
X154119861Y-109026808D01*
X154120187Y-109026196D01*
X154069338Y-108985219D01*
X154047274Y-108918925D01*
X154064554Y-108851226D01*
X154115691Y-108803616D01*
X154171195Y-108790500D01*
X154444750Y-108790500D01*
X154444751Y-108790499D01*
X154459568Y-108787552D01*
X154503229Y-108778868D01*
X154503229Y-108778867D01*
X154503231Y-108778867D01*
X154569552Y-108734552D01*
X154613867Y-108668231D01*
X154613867Y-108668229D01*
X154613868Y-108668229D01*
X154625499Y-108609752D01*
X154625500Y-108609750D01*
X154625500Y-107070249D01*
X154625499Y-107070247D01*
X154613868Y-107011770D01*
X154613867Y-107011769D01*
X154569552Y-106945447D01*
X154503230Y-106901132D01*
X154503229Y-106901131D01*
X154444752Y-106889500D01*
X154444748Y-106889500D01*
X152905252Y-106889500D01*
X152905247Y-106889500D01*
X152846770Y-106901131D01*
X152846769Y-106901132D01*
X152780447Y-106945447D01*
X152736132Y-107011769D01*
X152736131Y-107011770D01*
X152724500Y-107070247D01*
X152724500Y-107463000D01*
X152704815Y-107530039D01*
X152652011Y-107575794D01*
X152600500Y-107587000D01*
X152231471Y-107587000D01*
X152164432Y-107567315D01*
X152143790Y-107550681D01*
X150901127Y-106308018D01*
X150901126Y-106308017D01*
X150808138Y-106269500D01*
X122826863Y-106269500D01*
X122726214Y-106269500D01*
X122726213Y-106269500D01*
X122633224Y-106308018D01*
X117176499Y-111764743D01*
X117115176Y-111798228D01*
X117045484Y-111793244D01*
X116989551Y-111751372D01*
X116967202Y-111701256D01*
X116953973Y-111634749D01*
X116895636Y-111493911D01*
X116882323Y-111461771D01*
X116882318Y-111461762D01*
X116778302Y-111306092D01*
X116778299Y-111306088D01*
X116645911Y-111173700D01*
X116645907Y-111173697D01*
X116490237Y-111069681D01*
X116490228Y-111069676D01*
X116383215Y-111025350D01*
X116347509Y-111010560D01*
X116293107Y-110966720D01*
X116271042Y-110900426D01*
X116288321Y-110832727D01*
X116339458Y-110785116D01*
X116347504Y-110781441D01*
X116490231Y-110722322D01*
X116645908Y-110618302D01*
X116778302Y-110485908D01*
X116882322Y-110330231D01*
X116953973Y-110157251D01*
X116990500Y-109973616D01*
X116990500Y-109786384D01*
X116953973Y-109602749D01*
X116895636Y-109461911D01*
X116882323Y-109429771D01*
X116882318Y-109429762D01*
X116778302Y-109274092D01*
X116778299Y-109274088D01*
X116645911Y-109141700D01*
X116645907Y-109141697D01*
X116490237Y-109037681D01*
X116490228Y-109037676D01*
X116363584Y-108985219D01*
X116347509Y-108978560D01*
X116293107Y-108934720D01*
X116271042Y-108868426D01*
X116288321Y-108800727D01*
X116339458Y-108753116D01*
X116347504Y-108749441D01*
X116490231Y-108690322D01*
X116645908Y-108586302D01*
X116778302Y-108453908D01*
X116882322Y-108298231D01*
X116953973Y-108125251D01*
X116990500Y-107941616D01*
X116990500Y-107754384D01*
X116953973Y-107570749D01*
X116882322Y-107397769D01*
X116882321Y-107397768D01*
X116882318Y-107397762D01*
X116778302Y-107242092D01*
X116778299Y-107242088D01*
X116645911Y-107109700D01*
X116645907Y-107109697D01*
X116490237Y-107005681D01*
X116490228Y-107005676D01*
X116317251Y-106934027D01*
X116317243Y-106934025D01*
X116133620Y-106897500D01*
X116133616Y-106897500D01*
X115946384Y-106897500D01*
X115946379Y-106897500D01*
X115762756Y-106934025D01*
X115762748Y-106934027D01*
X115589771Y-107005676D01*
X115589762Y-107005681D01*
X115434092Y-107109697D01*
X115434088Y-107109700D01*
X115301700Y-107242088D01*
X115301697Y-107242092D01*
X115197681Y-107397762D01*
X115197676Y-107397771D01*
X115147689Y-107518453D01*
X115103848Y-107572856D01*
X115037554Y-107594921D01*
X115033128Y-107595000D01*
X113878635Y-107595000D01*
X113785646Y-107633518D01*
X112838019Y-108581145D01*
X112799501Y-108674134D01*
X112799501Y-115992835D01*
X112779816Y-116059874D01*
X112727012Y-116105629D01*
X112657854Y-116115573D01*
X112613501Y-116100222D01*
X112551295Y-116064307D01*
X112551285Y-116064303D01*
X112324162Y-115970225D01*
X112324155Y-115970223D01*
X112324153Y-115970222D01*
X112086677Y-115906591D01*
X112045939Y-115901227D01*
X111842934Y-115874500D01*
X111842927Y-115874500D01*
X111597073Y-115874500D01*
X111597065Y-115874500D01*
X111365059Y-115905045D01*
X111353323Y-115906591D01*
X111246429Y-115935233D01*
X111115847Y-115970222D01*
X111115837Y-115970225D01*
X110888714Y-116064303D01*
X110888705Y-116064307D01*
X110675787Y-116187236D01*
X110480745Y-116336897D01*
X110480738Y-116336903D01*
X110306903Y-116510738D01*
X110306897Y-116510745D01*
X110157236Y-116705787D01*
X110034307Y-116918705D01*
X110034303Y-116918714D01*
X109940225Y-117145837D01*
X109940222Y-117145847D01*
X109876592Y-117383320D01*
X109876590Y-117383331D01*
X109844500Y-117627065D01*
X106260500Y-117627065D01*
X106260500Y-104927065D01*
X109844500Y-104927065D01*
X109844500Y-105172934D01*
X109871227Y-105375939D01*
X109876591Y-105416677D01*
X109876592Y-105416679D01*
X109940222Y-105654152D01*
X109940225Y-105654162D01*
X110034303Y-105881285D01*
X110034306Y-105881292D01*
X110157233Y-106094208D01*
X110157235Y-106094211D01*
X110157236Y-106094212D01*
X110306897Y-106289254D01*
X110306903Y-106289261D01*
X110480738Y-106463096D01*
X110480744Y-106463101D01*
X110675792Y-106612767D01*
X110888708Y-106735694D01*
X111115847Y-106829778D01*
X111353323Y-106893409D01*
X111597073Y-106925500D01*
X111597080Y-106925500D01*
X111842920Y-106925500D01*
X111842927Y-106925500D01*
X112086677Y-106893409D01*
X112324153Y-106829778D01*
X112551292Y-106735694D01*
X112764208Y-106612767D01*
X112959256Y-106463101D01*
X113133101Y-106289256D01*
X113282767Y-106094208D01*
X113405694Y-105881292D01*
X113499778Y-105654153D01*
X113563409Y-105416677D01*
X113595500Y-105172927D01*
X113595500Y-104927073D01*
X113595499Y-104927065D01*
X154339500Y-104927065D01*
X154339500Y-105172934D01*
X154366227Y-105375939D01*
X154371591Y-105416677D01*
X154371592Y-105416679D01*
X154435222Y-105654152D01*
X154435225Y-105654162D01*
X154529303Y-105881285D01*
X154529306Y-105881292D01*
X154652233Y-106094208D01*
X154652235Y-106094211D01*
X154652236Y-106094212D01*
X154801897Y-106289254D01*
X154801903Y-106289261D01*
X154975738Y-106463096D01*
X154975744Y-106463101D01*
X155170792Y-106612767D01*
X155383708Y-106735694D01*
X155610847Y-106829778D01*
X155848323Y-106893409D01*
X156092073Y-106925500D01*
X156092080Y-106925500D01*
X156337920Y-106925500D01*
X156337927Y-106925500D01*
X156581677Y-106893409D01*
X156819153Y-106829778D01*
X157046292Y-106735694D01*
X157259208Y-106612767D01*
X157454256Y-106463101D01*
X157628101Y-106289256D01*
X157777767Y-106094208D01*
X157900694Y-105881292D01*
X157994778Y-105654153D01*
X158058409Y-105416677D01*
X158090500Y-105172927D01*
X158090500Y-104927073D01*
X158058409Y-104683323D01*
X157994778Y-104445847D01*
X157900694Y-104218708D01*
X157777767Y-104005792D01*
X157628101Y-103810744D01*
X157628096Y-103810738D01*
X157454261Y-103636903D01*
X157454254Y-103636897D01*
X157259212Y-103487236D01*
X157259211Y-103487235D01*
X157259208Y-103487233D01*
X157046292Y-103364306D01*
X157046285Y-103364303D01*
X156819162Y-103270225D01*
X156819155Y-103270223D01*
X156819153Y-103270222D01*
X156581677Y-103206591D01*
X156540939Y-103201227D01*
X156337934Y-103174500D01*
X156337927Y-103174500D01*
X156092073Y-103174500D01*
X156092065Y-103174500D01*
X155860059Y-103205045D01*
X155848323Y-103206591D01*
X155610847Y-103270222D01*
X155610837Y-103270225D01*
X155383714Y-103364303D01*
X155383705Y-103364307D01*
X155170787Y-103487236D01*
X154975745Y-103636897D01*
X154975738Y-103636903D01*
X154801903Y-103810738D01*
X154801897Y-103810745D01*
X154652236Y-104005787D01*
X154529307Y-104218705D01*
X154529303Y-104218714D01*
X154435225Y-104445837D01*
X154435222Y-104445847D01*
X154371592Y-104683320D01*
X154371590Y-104683331D01*
X154339500Y-104927065D01*
X113595499Y-104927065D01*
X113563409Y-104683323D01*
X113499778Y-104445847D01*
X113405694Y-104218708D01*
X113282767Y-104005792D01*
X113133101Y-103810744D01*
X113133096Y-103810738D01*
X112959261Y-103636903D01*
X112959254Y-103636897D01*
X112764212Y-103487236D01*
X112764211Y-103487235D01*
X112764208Y-103487233D01*
X112551292Y-103364306D01*
X112551285Y-103364303D01*
X112324162Y-103270225D01*
X112324155Y-103270223D01*
X112324153Y-103270222D01*
X112086677Y-103206591D01*
X112045939Y-103201227D01*
X111842934Y-103174500D01*
X111842927Y-103174500D01*
X111597073Y-103174500D01*
X111597065Y-103174500D01*
X111365059Y-103205045D01*
X111353323Y-103206591D01*
X111115847Y-103270222D01*
X111115837Y-103270225D01*
X110888714Y-103364303D01*
X110888705Y-103364307D01*
X110675787Y-103487236D01*
X110480745Y-103636897D01*
X110480738Y-103636903D01*
X110306903Y-103810738D01*
X110306897Y-103810745D01*
X110157236Y-104005787D01*
X110034307Y-104218705D01*
X110034303Y-104218714D01*
X109940225Y-104445837D01*
X109940222Y-104445847D01*
X109876592Y-104683320D01*
X109876590Y-104683331D01*
X109844500Y-104927065D01*
X106260500Y-104927065D01*
X106260500Y-102244500D01*
X106280185Y-102177461D01*
X106332989Y-102131706D01*
X106384500Y-102120500D01*
X161550500Y-102120500D01*
X161617539Y-102140185D01*
G37*
%TD.AperFunction*%
%TD*%
M02*
