M48
; DRILL file KiCad 10.0.4 date 2026-07-13T16:49:02
; FORMAT={-:-/ absolute / metric / decimal}
; #@! TF.CreationDate,2026-07-13T16:49:02+05:30
; #@! TF.GenerationSoftware,Kicad,Pcbnew,10.0.4
; #@! TF.FileFunction,Plated,1,4,PTH
FMAT,2
METRIC
; #@! TA.AperFunction,Plated,PTH,ViaDrill
T1C0.300
; #@! TA.AperFunction,Plated,PTH,ComponentDrill
T2C0.890
; #@! TA.AperFunction,Plated,PTH,ComponentDrill
T3C1.570
%
G90
G05
T1
X109.611Y-108.471
X109.611Y-111.471
X109.611Y-114.471
X115.611Y-105.471
X115.611Y-117.471
X118.61Y-105.471
X118.61Y-117.471
X121.61Y-105.471
X121.61Y-117.471
X124.61Y-105.471
X124.61Y-117.471
X127.61Y-105.471
X127.61Y-117.471
X130.611Y-105.471
X130.611Y-117.471
X133.611Y-105.471
X133.611Y-117.471
X136.611Y-105.471
X136.611Y-117.471
X139.611Y-105.471
X139.611Y-117.471
X142.611Y-105.471
X142.611Y-117.471
X145.611Y-105.471
X145.611Y-117.471
X148.611Y-105.471
X148.611Y-117.471
X151.611Y-105.471
X151.611Y-117.471
X157.611Y-108.471
X157.611Y-111.471
X157.611Y-114.471
X160.611Y-105.471
X160.611Y-108.471
X160.611Y-111.471
X160.611Y-114.471
X160.611Y-117.471
T2
X114.26Y-108.864
X114.26Y-110.896
X114.26Y-112.928
X114.26Y-114.96
X116.04Y-107.848
X116.04Y-109.88
X116.04Y-111.912
X116.04Y-113.944
X151.895Y-108.856
X151.895Y-110.888
X151.895Y-112.92
X151.895Y-114.952
X153.675Y-107.84
X153.675Y-109.872
X153.675Y-111.904
X153.675Y-113.936
T3
X115.15Y-103.27
X115.15Y-119.53
X152.785Y-103.27
X152.785Y-119.53
M30
